# xmcd CD database file
#
# Track frame offsets:
#	150
#	22078
#	42346
#	61414
#	76801
#	90867
#	107320
#	128481
#	145508
#	162736
#	196424
#
# Disc length: 4440 seconds
#
# Revision: 0
# Processed by: cddbd v1.5PL3 Copyright (c) Steve Scherf et al.
# Submitted via: CDex 1.50beta9
#
DISCID=8211560b
DTITLE=笠原弘子 - バタフライ
DYEAR=2003
DGENRE=JPop
TTITLE0=青い空と白い雲
TTITLE1=ミルクティー
TTITLE2=幻想
TTITLE3=ふたり
TTITLE4=Sweets
TTITLE5=バタフライ
TTITLE6=I love you って何回言った？
TTITLE7=思い立ったが吉日
TTITLE8=ごめんね…
TTITLE9=月と星の輝く夜に
TTITLE10=（ＣＣＣＤ最悪！）
EXTD=YEAR: 2003
EXTT0=
EXTT1=
EXTT2=
EXTT3=
EXTT4=
EXTT5=
EXTT6=
EXTT7=
EXTT8=
EXTT9=
EXTT10=
PLAYORDER=
